<?xml version="1.0" encoding="iso-8859-1"?>
<!-- Uploaded to: SVG Repo, www.svgrepo.com, Generator: SVG Repo Mixer Tools -->
<svg fill="#000000" height="800px" width="800px" version="1.1" id="Capa_1" xmlns="http://www.w3.org/2000/svg" xmlns:xlink="http://www.w3.org/1999/xlink" 
	 viewBox="0 0 490 490" xml:space="preserve">
<path id="XMLID_24_" d="M469.24,322.22l-35.013-27.386c4.294-16.213,6.465-32.931,6.465-49.834c0-16.903-2.172-33.621-6.465-49.833
	l35.013-27.386c5.893-4.609,7.487-12.834,3.742-19.299l-30.106-51.962c-3.746-6.465-11.693-9.202-18.644-6.42l-41.339,16.535
	c-24.187-23.984-53.792-41.028-86.59-49.853l-6.294-43.902C288.95,5.489,282.598,0,275.107,0h-60.213
	c-7.491,0-13.842,5.489-14.902,12.879l-6.294,43.902c-32.799,8.825-62.403,25.869-86.59,49.853l-41.34-16.535
	c-6.953-2.78-14.898-0.043-18.644,6.42l-30.106,51.962c-3.746,6.465-2.151,14.69,3.742,19.299l35.013,27.387
	c-4.293,16.213-6.465,32.93-6.465,49.833c0,16.904,2.171,33.619,6.465,49.833L20.76,322.22c-5.893,4.609-7.487,12.834-3.742,19.299
	l30.106,51.962c3.745,6.464,11.69,9.201,18.644,6.42l41.34-16.535c24.187,23.984,53.791,41.027,86.59,49.853l6.294,43.902
	c1.059,7.39,7.41,12.879,14.902,12.879h60.213c7.491,0,13.843-5.489,14.902-12.879l6.294-43.902
	c32.799-8.825,62.403-25.869,86.59-49.853l41.339,16.535c6.951,2.78,14.897,0.045,18.644-6.42l30.106-51.962
	C476.728,335.054,475.133,326.829,469.24,322.22z M423.331,367.214l-38.685-15.473c-5.856-2.342-12.547-0.799-16.775,3.862
	c-23.545,25.955-54.033,43.506-88.166,50.757c-6.173,1.312-10.87,6.322-11.763,12.549L262.051,460h-34.102l-5.891-41.091
	c-0.893-6.227-5.59-11.237-11.763-12.549c-34.133-7.251-64.621-24.803-88.166-50.757c-4.228-4.662-10.924-6.202-16.774-3.862
	l-38.686,15.473l-17.051-29.429l32.757-25.622c4.96-3.88,6.968-10.429,5.03-16.409c-5.302-16.362-7.991-33.438-7.991-50.755
	c0-17.317,2.689-34.393,7.991-50.754c1.938-5.979-0.07-12.529-5.03-16.409l-32.757-25.622l17.051-29.429l38.686,15.473
	c5.85,2.34,12.546,0.799,16.774-3.862c23.545-25.955,54.032-43.506,88.166-50.757c6.174-1.312,10.87-6.322,11.763-12.549L227.949,30
	h34.102l5.891,41.091c0.893,6.227,5.59,11.237,11.763,12.549c34.133,7.251,64.621,24.803,88.166,50.757
	c4.228,4.661,10.92,6.202,16.775,3.862l38.685-15.473l17.051,29.429l-32.757,25.622c-4.961,3.88-6.968,10.43-5.03,16.41
	c5.303,16.361,7.992,33.437,7.992,50.754c0,17.317-2.689,34.394-7.992,50.755c-1.938,5.979,0.07,12.529,5.03,16.409l32.757,25.622
	L423.331,367.214z M283.125,194.199c-2.689-4.641-7.658-7.5-13.036-7.5h-50.177c-5.378,0-10.348,2.859-13.036,7.5L181.786,237.5
	c-2.689,4.641-2.689,10.359,0,15l25.089,43.301c2.689,4.641,7.658,7.5,13.036,7.5h50.177c5.378,0,10.347-2.859,13.036-7.5
	l25.089-43.301c2.689-4.641,2.689-10.359,0-15L283.125,194.199z M261.398,273.301h-32.796L212.205,245l16.398-28.301h32.796
	L277.796,245L261.398,273.301z M245,110c-74.704,0-135.479,60.561-135.479,135S170.297,380,245,380s135.479-60.561,135.479-135
	S319.704,110,245,110z M245,350c-58.102,0-105.373-47.103-105.373-105S186.898,140,245,140c58.103,0,105.373,47.103,105.373,105
	S303.103,350,245,350z" fill="#444444"/>
</svg>